<!DOCTYPE svg PUBLIC "-//W3C//DTD SVG 1.1//EN" "http://www.w3.org/Graphics/SVG/1.1/DTD/svg11.dtd">
<!-- Uploaded to: SVG Repo, www.svgrepo.com, Transformed by: SVG Repo Mixer Tools -->
<svg fill="#370bd5" height="800px" width="800px" version="1.1" id="Capa_1" xmlns="http://www.w3.org/2000/svg" xmlns:xlink="http://www.w3.org/1999/xlink" viewBox="-14.1 -14.1 498.20 498.20" xml:space="preserve" stroke="#370bd5" stroke-width="13.160000000000002">
<g id="SVGRepo_bgCarrier" stroke-width="0"/>
<g id="SVGRepo_tracerCarrier" stroke-linecap="round" stroke-linejoin="round"/>
<g id="SVGRepo_iconCarrier"> <g> <path d="M247.226,297.049c-1.834,5.16-6.748,8.628-12.226,8.628s-10.391-3.468-12.226-8.628c-1.387-3.904-5.677-5.945-9.579-4.555 c-3.903,1.387-5.942,5.676-4.555,9.578c3.956,11.128,14.549,18.604,26.359,18.604s22.403-7.477,26.359-18.604 c1.387-3.902-0.652-8.191-4.555-9.578C252.902,291.104,248.613,293.146,247.226,297.049z"/> <path d="M367.691,413.686H102.309c-26.916,0-48.814,21.898-48.814,48.814c0,4.143,3.358,7.5,7.5,7.5h348.011 c4.142,0,7.5-3.357,7.5-7.5C416.505,435.584,394.607,413.686,367.691,413.686z M69.333,455 c3.42-15.049,16.907-26.314,32.976-26.314h265.383c16.069,0,29.555,11.266,32.976,26.314H69.333z"/> <path d="M314.055,212.151c-7.292,0-14.217,2.494-19.754,6.994c-18.079-10.075-38.456-15.373-59.301-15.373 s-41.223,5.298-59.301,15.372c-5.536-4.499-12.461-6.993-19.754-6.993c-17.305,0-31.383,14.078-31.383,31.383v30.382 c-7.656,16.271-11.536,33.699-11.536,51.83v65.439c0,4.143,3.358,7.5,7.5,7.5s7.5-3.357,7.5-7.5v-65.439 c0-16.423,3.626-32.181,10.777-46.839c0.5-1.023,0.759-2.148,0.759-3.288v-32.085c0-9.033,7.349-16.383,16.383-16.383 c4.971,0,9.618,2.224,12.75,6.102c2.381,2.948,6.587,3.657,9.802,1.651c16.928-10.554,36.467-16.132,56.503-16.132 s39.575,5.578,56.503,16.132c3.215,2.005,7.421,1.296,9.802-1.651c3.133-3.878,7.78-6.102,12.75-6.102 c9.034,0,16.383,7.35,16.383,16.383v32.085c0,1.14,0.26,2.265,0.759,3.288c7.151,14.658,10.777,30.416,10.777,46.839v65.439 c0,4.143,3.358,7.5,7.5,7.5s7.5-3.357,7.5-7.5v-65.439c0-18.131-3.88-35.559-11.536-51.83v-30.382 C345.438,226.229,331.36,212.151,314.055,212.151z"/> <path d="M415.192,62.69H291.85V43.323C291.85,19.435,272.416,0,248.527,0H90.631C66.742,0,47.308,19.435,47.308,43.323v92.117 c0,23.889,19.435,43.323,43.323,43.323h157.896c23.889,0,43.323-19.435,43.323-43.323v-19.368h123.342c4.142,0,7.5-3.357,7.5-7.5 V70.19C422.692,66.048,419.334,62.69,415.192,62.69z M276.85,135.44c0,15.617-12.706,28.323-28.323,28.323H90.631 c-15.618,0-28.323-12.706-28.323-28.323V43.323C62.308,27.706,75.013,15,90.631,15h157.896c15.618,0,28.323,12.706,28.323,28.323 V135.44z M291.85,77.69h23.382v23.382H291.85V77.69z M407.692,101.072h-77.46V77.69h77.46V101.072z"/> <path d="M237.193,114.855c-4.451,0-8.072,3.621-8.072,8.071c0,4.451,3.621,8.072,8.072,8.072c4.451,0,8.072-3.621,8.072-8.072 C245.265,118.477,241.644,114.855,237.193,114.855z"/> <path d="M106.775,69.095c-4.451,0-8.072,3.621-8.072,8.071c0,4.451,3.621,8.072,8.072,8.072c4.451,0,8.072-3.621,8.072-8.072 C114.847,72.716,111.226,69.095,106.775,69.095z"/> <path d="M132.716,42.818c-0.239-0.022-0.534-0.037-0.774-0.037c-4.186,0-7.64,3.143-8.034,7.299 c-0.207,2.151,0.437,4.253,1.814,5.918c1.376,1.665,3.319,2.692,5.447,2.891c0.239,0.022,0.534,0.037,0.774,0.037 c4.179,0,7.633-3.138,8.034-7.299C140.404,47.196,137.147,43.245,132.716,42.818z"/> <path d="M187.525,258.993c-4.142,0-7.5,3.357-7.5,7.5s3.358,7.5,7.5,7.5h10c4.142,0,7.5-3.357,7.5-7.5s-3.358-7.5-7.5-7.5H187.525z "/> <path d="M272.475,258.993c-4.142,0-7.5,3.357-7.5,7.5s3.358,7.5,7.5,7.5h10c4.142,0,7.5-3.357,7.5-7.5s-3.358-7.5-7.5-7.5H272.475z "/> </g> </g>
</svg>